<svg xmlns="http://www.w3.org/2000/svg" width="340" height="200" viewBox="0 0 340 200" font-family="'Segoe UI', Ubuntu, Sans-Serif">
  <rect x="0.5" y="0.5" width="339" height="199" rx="6" fill="#ffffff" stroke="#e4e2e2" stroke-opacity="1.00"/>
  <text x="20" y="30" font-size="15" font-weight="600" fill="#0366d6">Most Commit Language (all time)</text>
  <rect x="20" y="47" width="10" height="10" fill="#3572A5" stroke="#ffffff" stroke-width="1"/>
  <text x="36" y="55" font-size="11" fill="#586069">Python 68.42%</text>
  <rect x="20" y="67" width="10" height="10" fill="#7355dd" stroke="#ffffff" stroke-width="1"/>
  <text x="36" y="75" font-size="11" fill="#586069">C# 16.82%</text>
  <rect x="20" y="87" width="10" height="10" fill="#e34c26" stroke="#ffffff" stroke-width="1"/>
  <text x="36" y="95" font-size="11" fill="#586069">HTML 9.11%</text>
  <rect x="20" y="107" width="10" height="10" fill="#b07219" stroke="#ffffff" stroke-width="1"/>
  <text x="36" y="115" font-size="11" fill="#586069">Java 1.44%</text>
  <rect x="20" y="127" width="10" height="10" fill="#6a40fd" stroke="#ffffff" stroke-width="1"/>
  <text x="36" y="135" font-size="11" fill="#586069">ASP 1.09%</text>
  <rect x="20" y="147" width="10" height="10" fill="#663399" stroke="#ffffff" stroke-width="1"/>
  <text x="36" y="155" font-size="11" fill="#586069">CSS 0.89%</text>
  <rect x="20" y="167" width="10" height="10" fill="#40c463" stroke="#ffffff" stroke-width="1"/>
  <text x="36" y="175" font-size="11" fill="#586069">Other 2.23%</text>
  <path d="M250.00,55.00 A55.00,55.00 0 1 1 199.63,132.09 L222.52,122.05 A30.00,30.00 0 1 0 250.00,80.00 Z" fill="#3572A5" stroke="#ffffff" stroke-width="1.5"/>
  <path d="M199.63,132.09 A55.00,55.00 0 0 1 206.00,77.00 L226.00,92.00 A30.00,30.00 0 0 0 222.52,122.05 Z" fill="#7355dd" stroke="#ffffff" stroke-width="1.5"/>
  <path d="M206.00,77.00 A55.00,55.00 0 0 1 230.89,58.43 L239.58,81.87 A30.00,30.00 0 0 0 226.00,92.00 Z" fill="#e34c26" stroke="#ffffff" stroke-width="1.5"/>
  <path d="M230.89,58.43 A55.00,55.00 0 0 1 235.61,56.91 L242.15,81.04 A30.00,30.00 0 0 0 239.58,81.87 Z" fill="#b07219" stroke="#ffffff" stroke-width="1.5"/>
  <path d="M235.61,56.91 A55.00,55.00 0 0 1 239.28,56.05 L244.15,80.58 A30.00,30.00 0 0 0 242.15,81.04 Z" fill="#6a40fd" stroke="#ffffff" stroke-width="1.5"/>
  <path d="M239.28,56.05 A55.00,55.00 0 0 1 242.32,55.54 L245.81,80.29 A30.00,30.00 0 0 0 244.15,80.58 Z" fill="#663399" stroke="#ffffff" stroke-width="1.5"/>
  <path d="M242.32,55.54 A55.00,55.00 0 0 1 250.00,55.00 L250.00,80.00 A30.00,30.00 0 0 0 245.81,80.29 Z" fill="#40c463" stroke="#ffffff" stroke-width="1.5"/>
</svg>