<svg xmlns="http://www.w3.org/2000/svg" width="340" height="200" viewBox="0 0 340 200" font-family="'Segoe UI', Ubuntu, Sans-Serif">
  <rect x="0.5" y="0.5" width="339" height="199" rx="6" fill="#ffffff" stroke="#e4e2e2" stroke-opacity="1.00"/>
  <text x="20" y="30" font-size="15" font-weight="600" fill="#0366d6">Repos Per Language</text>
  <rect x="20" y="47" width="10" height="10" fill="#7355dd" stroke="#ffffff" stroke-width="1"/>
  <text x="36" y="55" font-size="11" fill="#586069">C# 31.25%</text>
  <rect x="20" y="67" width="10" height="10" fill="#e34c26" stroke="#ffffff" stroke-width="1"/>
  <text x="36" y="75" font-size="11" fill="#586069">HTML 31.25%</text>
  <rect x="20" y="87" width="10" height="10" fill="#f1e05a" stroke="#ffffff" stroke-width="1"/>
  <text x="36" y="95" font-size="11" fill="#586069">JavaScript 12.50%</text>
  <rect x="20" y="107" width="10" height="10" fill="#6a40fd" stroke="#ffffff" stroke-width="1"/>
  <text x="36" y="115" font-size="11" fill="#586069">ASP 6.25%</text>
  <rect x="20" y="127" width="10" height="10" fill="#00B4AB" stroke="#ffffff" stroke-width="1"/>
  <text x="36" y="135" font-size="11" fill="#586069">Dart 6.25%</text>
  <rect x="20" y="147" width="10" height="10" fill="#b07219" stroke="#ffffff" stroke-width="1"/>
  <text x="36" y="155" font-size="11" fill="#586069">Java 6.25%</text>
  <rect x="20" y="167" width="10" height="10" fill="#3572A5" stroke="#ffffff" stroke-width="1"/>
  <text x="36" y="175" font-size="11" fill="#586069">Python 6.25%</text>
  <path d="M250.00,55.00 A55.00,55.00 0 0 1 300.81,131.05 L277.72,121.48 A30.00,30.00 0 0 0 250.00,80.00 Z" fill="#7355dd" stroke="#ffffff" stroke-width="1.5"/>
  <path d="M300.81,131.05 A55.00,55.00 0 0 1 211.11,148.89 L228.79,131.21 A30.00,30.00 0 0 0 277.72,121.48 Z" fill="#e34c26" stroke="#ffffff" stroke-width="1.5"/>
  <path d="M211.11,148.89 A55.00,55.00 0 0 1 195.00,110.00 L220.00,110.00 A30.00,30.00 0 0 0 228.79,131.21 Z" fill="#f1e05a" stroke="#ffffff" stroke-width="1.5"/>
  <path d="M195.00,110.00 A55.00,55.00 0 0 1 199.19,88.95 L222.28,98.52 A30.00,30.00 0 0 0 220.00,110.00 Z" fill="#6a40fd" stroke="#ffffff" stroke-width="1.5"/>
  <path d="M199.19,88.95 A55.00,55.00 0 0 1 211.11,71.11 L228.79,88.79 A30.00,30.00 0 0 0 222.28,98.52 Z" fill="#00B4AB" stroke="#ffffff" stroke-width="1.5"/>
  <path d="M211.11,71.11 A55.00,55.00 0 0 1 228.95,59.19 L238.52,82.28 A30.00,30.00 0 0 0 228.79,88.79 Z" fill="#b07219" stroke="#ffffff" stroke-width="1.5"/>
  <path d="M228.95,59.19 A55.00,55.00 0 0 1 250.00,55.00 L250.00,80.00 A30.00,30.00 0 0 0 238.52,82.28 Z" fill="#3572A5" stroke="#ffffff" stroke-width="1.5"/>
</svg>