<svg xmlns="http://www.w3.org/2000/svg" width="340" height="200" viewBox="0 0 340 200" font-family="'Segoe UI', Ubuntu, Sans-Serif">
  <rect x="0.5" y="0.5" width="339" height="199" rx="6" fill="#1a1b27" stroke="#1a1b27" stroke-opacity="1.00"/>
  <text x="20" y="30" font-size="15" font-weight="600" fill="#70a5fd">Most Commit Language (last year)</text>
  <rect x="20" y="47" width="10" height="10" fill="#3572A5" stroke="#1a1b27" stroke-width="1"/>
  <text x="36" y="55" font-size="11" fill="#38bdae">Python 97.89%</text>
  <rect x="20" y="67" width="10" height="10" fill="#7355dd" stroke="#1a1b27" stroke-width="1"/>
  <text x="36" y="75" font-size="11" fill="#38bdae">C# 0.70%</text>
  <rect x="20" y="87" width="10" height="10" fill="#f34b7d" stroke="#1a1b27" stroke-width="1"/>
  <text x="36" y="95" font-size="11" fill="#38bdae">C++ 0.47%</text>
  <rect x="20" y="107" width="10" height="10" fill="#00B4AB" stroke="#1a1b27" stroke-width="1"/>
  <text x="36" y="115" font-size="11" fill="#38bdae">Dart 0.47%</text>
  <rect x="20" y="127" width="10" height="10" fill="#DA3434" stroke="#1a1b27" stroke-width="1"/>
  <text x="36" y="135" font-size="11" fill="#38bdae">CMake 0.36%</text>
  <rect x="20" y="147" width="10" height="10" fill="#F05138" stroke="#1a1b27" stroke-width="1"/>
  <text x="36" y="155" font-size="11" fill="#38bdae">Swift 0.04%</text>
  <rect x="20" y="167" width="10" height="10" fill="#bf91f3" stroke="#1a1b27" stroke-width="1"/>
  <text x="36" y="175" font-size="11" fill="#38bdae">Other 0.06%</text>
  <path d="M250.00,55.00 A55.00,55.00 0 1 1 242.72,55.48 L246.03,80.26 A30.00,30.00 0 1 0 250.00,80.00 Z" fill="#3572A5" stroke="#1a1b27" stroke-width="1.5"/>
  <path d="M242.72,55.48 A55.00,55.00 0 0 1 245.14,55.22 L247.35,80.12 A30.00,30.00 0 0 0 246.03,80.26 Z" fill="#7355dd" stroke="#1a1b27" stroke-width="1.5"/>
  <path d="M245.14,55.22 A55.00,55.00 0 0 1 246.77,55.09 L248.24,80.05 A30.00,30.00 0 0 0 247.35,80.12 Z" fill="#f34b7d" stroke="#1a1b27" stroke-width="1.5"/>
  <path d="M246.77,55.09 A55.00,55.00 0 0 1 248.40,55.02 L249.13,80.01 A30.00,30.00 0 0 0 248.24,80.05 Z" fill="#00B4AB" stroke="#1a1b27" stroke-width="1.5"/>
  <path d="M248.40,55.02 A55.00,55.00 0 0 1 249.66,55.00 L249.82,80.00 A30.00,30.00 0 0 0 249.13,80.01 Z" fill="#DA3434" stroke="#1a1b27" stroke-width="1.5"/>
  <path d="M249.66,55.00 A55.00,55.00 0 0 1 249.80,55.00 L249.89,80.00 A30.00,30.00 0 0 0 249.82,80.00 Z" fill="#F05138" stroke="#1a1b27" stroke-width="1.5"/>
  <path d="M249.80,55.00 A55.00,55.00 0 0 1 250.00,55.00 L250.00,80.00 A30.00,30.00 0 0 0 249.89,80.00 Z" fill="#bf91f3" stroke="#1a1b27" stroke-width="1.5"/>
</svg>