<svg xmlns="http://www.w3.org/2000/svg" width="340" height="200" viewBox="0 0 340 200" font-family="'Segoe UI', Ubuntu, Sans-Serif">
  <rect x="0.5" y="0.5" width="339" height="199" rx="6" fill="#1a1b27" stroke="#1a1b27" stroke-opacity="1.00"/>
  <text x="20" y="30" font-size="15" font-weight="600" fill="#70a5fd">Most Commit Language (all time)</text>
  <rect x="20" y="47" width="10" height="10" fill="#3572A5" stroke="#1a1b27" stroke-width="1"/>
  <text x="36" y="55" font-size="11" fill="#38bdae">Python 77.18%</text>
  <rect x="20" y="67" width="10" height="10" fill="#7355dd" stroke="#1a1b27" stroke-width="1"/>
  <text x="36" y="75" font-size="11" fill="#38bdae">C# 9.30%</text>
  <rect x="20" y="87" width="10" height="10" fill="#e34c26" stroke="#1a1b27" stroke-width="1"/>
  <text x="36" y="95" font-size="11" fill="#38bdae">HTML 6.67%</text>
  <rect x="20" y="107" width="10" height="10" fill="#b07219" stroke="#1a1b27" stroke-width="1"/>
  <text x="36" y="115" font-size="11" fill="#38bdae">Java 1.63%</text>
  <rect x="20" y="127" width="10" height="10" fill="#663399" stroke="#1a1b27" stroke-width="1"/>
  <text x="36" y="135" font-size="11" fill="#38bdae">CSS 1.49%</text>
  <rect x="20" y="147" width="10" height="10" fill="#6a40fd" stroke="#1a1b27" stroke-width="1"/>
  <text x="36" y="155" font-size="11" fill="#38bdae">ASP 1.24%</text>
  <rect x="20" y="167" width="10" height="10" fill="#bf91f3" stroke="#1a1b27" stroke-width="1"/>
  <text x="36" y="175" font-size="11" fill="#38bdae">Other 2.49%</text>
  <path d="M250.00,55.00 A55.00,55.00 0 1 1 195.51,102.51 L220.28,105.91 A30.00,30.00 0 1 0 250.00,80.00 Z" fill="#3572A5" stroke="#1a1b27" stroke-width="1.5"/>
  <path d="M195.51,102.51 A55.00,55.00 0 0 1 208.69,73.69 L227.47,90.20 A30.00,30.00 0 0 0 220.28,105.91 Z" fill="#7355dd" stroke="#1a1b27" stroke-width="1.5"/>
  <path d="M208.69,73.69 A55.00,55.00 0 0 1 227.04,60.02 L237.48,82.74 A30.00,30.00 0 0 0 227.47,90.20 Z" fill="#e34c26" stroke="#1a1b27" stroke-width="1.5"/>
  <path d="M227.04,60.02 A55.00,55.00 0 0 1 232.27,57.94 L240.33,81.60 A30.00,30.00 0 0 0 237.48,82.74 Z" fill="#b07219" stroke="#1a1b27" stroke-width="1.5"/>
  <path d="M232.27,57.94 A55.00,55.00 0 0 1 237.22,56.51 L243.03,80.82 A30.00,30.00 0 0 0 240.33,81.60 Z" fill="#663399" stroke="#1a1b27" stroke-width="1.5"/>
  <path d="M237.22,56.51 A55.00,55.00 0 0 1 241.42,55.67 L245.32,80.37 A30.00,30.00 0 0 0 243.03,80.82 Z" fill="#6a40fd" stroke="#1a1b27" stroke-width="1.5"/>
  <path d="M241.42,55.67 A55.00,55.00 0 0 1 250.00,55.00 L250.00,80.00 A30.00,30.00 0 0 0 245.32,80.37 Z" fill="#bf91f3" stroke="#1a1b27" stroke-width="1.5"/>
</svg>